<svg width="550" height="550" viewBox="0 0 550 550" fill="none" xmlns="http://www.w3.org/2000/svg">
<path d="M468.852 138.569C467.903 137.597 467.32 136.268 467.32 134.804C467.32 131.826 469.733 129.412 472.713 129.412C475.06 129.412 477.055 130.912 477.796 133.006H477.925C500.184 154.279 514.052 184.262 514.052 217.484C514.052 277.392 468.96 326.769 410.865 333.526C408.194 334.043 405.436 334.314 402.615 334.314C378.788 334.314 359.477 315 359.477 291.176C359.477 267.352 378.788 248.039 402.615 248.039V248.018C403.211 248.032 403.812 248.039 404.412 248.039C445.112 248.039 478.105 215.046 478.105 174.346C478.105 161.362 474.747 149.163 468.852 138.569Z" fill="#5D9FF0"/>
<path d="M510.523 317.475C510.541 316.117 511.065 314.765 512.101 313.73C514.207 311.624 517.622 311.624 519.729 313.73C521.386 315.39 521.738 317.863 520.782 319.867L520.872 319.957C521.569 350.74 510.174 381.747 486.682 405.239C444.321 447.599 377.523 450.63 331.664 414.326C329.41 412.806 327.268 411.044 325.273 409.049C308.427 392.204 308.427 364.891 325.273 348.045C342.119 331.199 369.431 331.199 386.28 348.045L386.295 348.03C386.704 348.462 387.125 348.891 387.549 349.316C416.329 378.094 462.989 378.094 491.769 349.316C500.946 340.135 507.201 329.134 510.523 317.475Z" fill="#5D9FF0"/>
<path d="M411.429 472.446C412.403 471.497 413.729 470.915 415.196 470.915C418.173 470.915 420.588 473.331 420.588 476.307C420.588 478.654 419.086 480.653 416.993 481.394V481.519C395.72 503.782 365.736 517.647 332.516 517.647C272.607 517.647 223.23 472.554 216.474 414.459C215.956 411.788 215.686 409.031 215.686 406.209C215.686 382.386 234.998 363.072 258.823 363.072C282.647 363.072 301.96 382.386 301.96 406.209H301.981C301.967 406.806 301.96 407.406 301.96 408.006C301.96 448.706 334.953 481.699 375.654 481.699C388.638 481.699 400.835 478.342 411.429 472.446Z" fill="#5D9FF0"/>
<path d="M231.484 510.522C232.842 510.54 234.194 511.068 235.23 512.104C237.336 514.207 237.335 517.622 235.23 519.728C233.57 521.389 231.096 521.741 229.092 520.782L229.002 520.871C198.219 521.572 167.213 510.173 143.722 486.685C101.36 444.321 98.3301 377.523 134.633 331.664C136.155 329.411 137.914 327.269 139.909 325.274C156.755 308.428 184.068 308.428 200.914 325.274C217.76 342.12 217.761 369.434 200.914 386.28L200.93 386.294C200.497 386.707 200.068 387.124 199.643 387.549C170.865 416.328 170.864 462.988 199.643 491.768C208.824 500.949 219.825 507.201 231.484 510.522Z" fill="#5D9FF0"/>
<path d="M317.474 38.436C316.117 38.4191 314.764 37.8932 313.729 36.8575C311.623 34.7516 311.623 31.3373 313.729 29.2317C315.389 27.5716 317.862 27.2202 319.867 28.1776L319.957 28.0876C350.739 27.3888 381.747 38.785 405.235 62.2761C447.599 104.638 450.63 171.438 414.326 217.295C412.802 219.549 411.044 221.691 409.049 223.686C392.204 240.532 364.891 240.532 348.044 223.686C331.198 206.84 331.198 179.527 348.044 162.681L348.029 162.666C348.461 162.253 348.89 161.835 349.315 161.41C378.094 132.631 378.094 85.9714 349.315 57.1924C340.134 48.0114 329.133 41.7593 317.474 38.436Z" fill="#5D9FF0"/>
<path d="M138.568 77.5533C137.596 78.5009 136.268 79.085 134.803 79.085C131.825 79.085 129.411 76.6708 129.411 73.6929C129.411 71.3451 130.912 69.3479 133.006 68.6074V68.4801C154.278 46.2195 184.261 32.353 217.483 32.353C277.392 32.353 326.768 77.4451 333.525 135.541C334.042 138.211 334.313 140.969 334.313 143.791C334.313 167.615 315 186.928 291.176 186.928C267.351 186.928 248.039 167.615 248.039 143.791H248.017C248.031 143.194 248.039 142.594 248.039 141.994C248.039 101.294 215.045 68.3007 174.346 68.3007C161.362 68.3007 149.162 71.6586 138.568 77.5533Z" fill="#5D9FF0"/>
<path d="M38.4362 231.485C38.4193 232.842 37.893 234.195 36.8573 235.23C34.7516 237.336 31.3373 237.336 29.2317 235.23C27.5716 233.57 27.2202 231.097 28.1776 229.093L28.0876 229.003C27.3888 198.22 38.7849 167.214 62.2763 143.723C104.638 101.361 171.438 98.3311 217.295 134.634C219.549 136.156 221.691 137.915 223.686 139.91C240.532 156.756 240.532 184.069 223.686 200.915C206.84 217.761 179.527 217.761 162.681 200.915L162.666 200.93C162.253 200.498 161.835 200.069 161.41 199.644C132.631 170.865 85.9713 170.865 57.1922 199.644C48.0116 208.825 41.7592 219.826 38.4362 231.485Z" fill="#5D9FF0"/>
<path d="M77.5517 407.837C78.4996 408.808 79.0838 410.138 79.0838 411.601C79.0838 414.578 76.6692 416.993 73.6916 416.993C71.3439 416.993 69.3463 415.494 68.6061 413.398H68.4788C46.2182 392.125 32.3516 362.144 32.3516 328.921C32.3516 269.013 77.4438 219.636 135.54 212.879C138.21 212.362 140.968 212.091 143.79 212.091C167.614 212.091 186.927 231.405 186.927 255.229C186.927 279.053 167.614 298.366 143.79 298.366V298.387C143.192 298.373 142.593 298.366 141.992 298.366C101.293 298.366 68.2995 331.359 68.2995 372.059C68.2995 385.043 71.657 397.244 77.5517 407.837Z" fill="#5D9FF0"/>
</svg>
