<svg width="4755" height="717" viewBox="0 0 4755 717" fill="none" xmlns="http://www.w3.org/2000/svg">
<path d="M376.273 399.078C363.773 399.078 353.031 395.074 344.047 387.066C335.258 379.059 330.863 369.391 330.863 358.062C330.863 346.93 335.258 337.359 344.047 329.352C353.031 321.344 363.773 317.34 376.273 317.34H502.836C515.336 317.34 525.98 321.344 534.77 329.352C543.754 337.359 548.246 346.93 548.246 358.062V471.734C548.246 482.672 544.047 492.047 535.648 499.859C515.727 521.344 492.289 538.141 465.336 550.25C437.016 562.75 407.328 569 376.273 569C315.727 569 264.359 547.906 222.172 505.719C181.156 464.703 160.648 415.484 160.648 358.062C160.648 300.836 181.156 251.617 222.172 210.406C264.359 168.219 315.727 147.125 376.273 147.125C403.031 147.125 428.91 151.812 453.91 161.188C478.324 170.562 500.492 184.039 520.414 201.617C529.398 209.43 533.891 218.902 533.891 230.035C534.086 241.363 529.789 251.031 521 259.039C512.211 267.047 501.566 271.148 489.066 271.344C476.566 271.344 465.824 267.438 456.84 259.625C445.707 249.664 433.012 241.949 418.754 236.48C405.082 231.402 390.922 228.863 376.273 228.863C342.68 228.863 313.773 240.973 289.555 265.191C264.164 290.582 251.469 321.539 251.469 358.062C251.469 394.781 264.164 425.836 289.555 451.227C313.773 475.445 342.68 487.555 376.273 487.555C393.461 487.555 409.867 484.039 425.492 477.008C437.016 471.93 447.66 464.996 457.426 456.207V399.078H376.273ZM920.023 528.277C920.023 539.605 915.531 549.273 906.547 557.281C897.758 565.094 887.113 569 874.613 569C862.113 569 851.371 565.094 842.387 557.281C833.598 549.273 829.203 539.605 829.203 528.277V491.656C829.203 478.57 824.809 467.633 816.02 458.844C808.402 451.227 799.516 447.418 789.359 447.418H686.234V528.277C686.234 539.605 681.742 549.273 672.758 557.281C663.969 565.094 653.324 569 640.824 569C628.324 569 617.582 565.094 608.598 557.281C599.809 549.273 595.414 539.605 595.414 528.277V187.848C595.414 176.715 599.809 167.145 608.598 159.137C617.582 151.129 628.324 147.125 640.824 147.125C653.324 147.125 663.969 151.129 672.758 159.137C681.742 167.145 686.234 176.715 686.234 187.848V365.68H763.871C798.637 365.68 821.879 352.691 833.598 326.715C837.699 317.535 839.75 307.77 839.75 297.418C839.75 286.871 837.699 277.008 833.598 267.828C821.879 241.852 798.637 228.863 763.871 228.863H739.262C726.566 228.863 715.824 224.859 707.035 216.852C698.246 208.844 693.852 199.176 693.852 187.848C693.852 176.715 698.246 167.145 707.035 159.137C715.824 151.129 726.566 147.125 739.262 147.125H763.871C801.762 147.125 834.477 155.816 862.016 173.199C887.016 189.02 905.57 210.406 917.68 237.359C926.273 256.305 930.57 276.324 930.57 297.418C930.57 318.316 926.273 338.238 917.68 357.184C909.477 375.543 898.148 391.363 883.695 404.645C907.914 429.059 920.023 458.062 920.023 491.656V528.277Z" fill="white"/>
<path d="M1941.73 187.848C1941.73 176.715 1946.23 167.145 1955.21 159.137C1964 151.129 1974.64 147.125 1987.14 147.125C1999.64 147.125 2010.39 151.129 2019.37 159.137C2028.16 167.145 2032.55 176.715 2032.55 187.848V528.277C2032.55 539.605 2028.16 549.273 2019.37 557.281C2010.39 565.094 1999.64 569 1987.14 569C1974.64 569 1964 565.094 1955.21 557.281C1946.23 549.273 1941.73 539.605 1941.73 528.277V187.848ZM1540.37 187.848C1540.37 176.715 1544.76 167.145 1553.55 159.137C1562.54 151.129 1573.28 147.125 1585.78 147.125C1598.28 147.125 1608.92 151.129 1617.71 159.137C1626.7 167.145 1631.19 176.715 1631.19 187.848V428.961C1631.19 445.953 1636.95 460.309 1648.47 472.027C1658.82 482.379 1671.03 487.555 1685.09 487.555H1721.42C1733.92 487.555 1744.66 491.559 1753.65 499.566C1762.44 507.379 1766.83 516.949 1766.83 528.277C1766.83 539.605 1762.44 549.273 1753.65 557.281C1744.66 565.094 1733.92 569 1721.42 569H1685.09C1644.27 569 1609.61 554.84 1581.09 526.52C1553.94 499.371 1540.37 466.852 1540.37 428.961V187.848ZM1738.71 428.961C1738.71 466.852 1752.28 499.371 1779.43 526.52C1807.95 554.84 1842.61 569 1883.43 569H1895.45C1907.95 569 1918.59 564.996 1927.38 556.988C1936.17 549.176 1940.56 539.605 1940.56 528.277C1940.56 517.145 1936.17 507.574 1927.38 499.566C1918.59 491.559 1907.95 487.555 1895.45 487.555H1883.43C1869.37 487.555 1857.16 482.379 1846.81 472.027C1835.29 460.309 1829.53 445.953 1829.53 428.961V187.848C1829.53 176.715 1825.13 167.145 1816.34 159.137C1807.36 151.129 1796.62 147.125 1784.12 147.125C1771.62 147.125 1760.97 151.129 1752.18 159.137C1743.2 167.145 1738.71 176.715 1738.71 187.848V428.961ZM2320.54 147.125C2333.24 147.125 2343.98 151.129 2352.77 159.137C2361.56 167.145 2365.95 176.812 2365.95 188.141C2365.95 199.273 2361.56 208.844 2352.77 216.852C2343.98 224.859 2333.24 228.863 2320.54 228.863H2107.26C2094.76 228.863 2084.02 224.859 2075.04 216.852C2066.25 208.844 2061.85 199.273 2061.85 188.141C2061.85 176.812 2066.25 167.145 2075.04 159.137C2084.02 151.129 2094.76 147.125 2107.26 147.125H2320.54ZM2259.31 528.277C2259.31 539.605 2254.92 549.273 2246.13 557.281C2237.14 565.094 2226.4 569 2213.9 569C2201.4 569 2190.76 565.094 2181.97 557.281C2172.98 549.273 2168.49 539.605 2168.49 528.277V281.305C2168.49 269.977 2172.98 260.309 2181.97 252.301C2190.76 244.488 2201.4 240.582 2213.9 240.582C2226.4 240.582 2237.14 244.488 2246.13 252.301C2254.92 260.309 2259.31 269.977 2259.31 281.305V528.277ZM2705.5 528.277C2705.5 539.605 2701.01 549.273 2692.03 557.281C2683.24 565.094 2672.59 569 2660.09 569C2647.59 569 2636.85 565.094 2627.87 557.281C2619.08 549.273 2614.68 539.605 2614.68 528.277V399.078H2541.73C2529.04 399.078 2518.3 395.074 2509.51 387.066C2500.72 379.059 2496.32 369.391 2496.32 358.062C2496.32 346.93 2500.72 337.359 2509.51 329.352C2518.3 321.344 2529.04 317.34 2541.73 317.34H2614.68V187.848C2614.68 176.715 2619.08 167.145 2627.87 159.137C2636.85 151.129 2647.59 147.125 2660.09 147.125C2672.59 147.125 2683.24 151.129 2692.03 159.137C2701.01 167.145 2705.5 176.715 2705.5 187.848V528.277ZM2486.07 528.277C2486.07 539.605 2481.58 549.273 2472.59 557.281C2463.8 565.094 2453.16 569 2440.66 569C2428.16 569 2417.42 565.094 2408.43 557.281C2399.64 549.273 2395.25 539.605 2395.25 528.277V187.848C2395.25 176.715 2399.64 167.145 2408.43 159.137C2417.42 151.129 2428.16 147.125 2440.66 147.125C2453.16 147.125 2463.8 151.129 2472.59 159.137C2481.58 167.145 2486.07 176.715 2486.07 187.848V528.277Z" fill="white"/>
<path d="M1429.85 212.569C1428.9 211.597 1428.32 210.268 1428.32 208.804C1428.32 205.826 1430.73 203.412 1433.71 203.412C1436.06 203.412 1438.06 204.912 1438.8 207.006H1438.92C1461.18 228.279 1475.05 258.262 1475.05 291.484C1475.05 351.392 1429.96 400.769 1371.86 407.526C1369.19 408.043 1366.44 408.314 1363.61 408.314C1339.79 408.314 1320.48 389 1320.48 365.176C1320.48 341.352 1339.79 322.039 1363.61 322.039V322.018C1364.21 322.032 1364.81 322.039 1365.41 322.039C1406.11 322.039 1439.1 289.046 1439.1 248.346C1439.1 235.362 1435.75 223.163 1429.85 212.569Z" fill="#5D9FF0"/>
<path d="M1471.52 391.475C1471.54 390.117 1472.06 388.765 1473.1 387.73C1475.21 385.624 1478.62 385.624 1480.73 387.73C1482.39 389.39 1482.74 391.863 1481.78 393.867L1481.87 393.957C1482.57 424.74 1471.17 455.747 1447.68 479.239C1405.32 521.599 1338.52 524.63 1292.66 488.326C1290.41 486.806 1288.27 485.044 1286.27 483.049C1269.43 466.204 1269.43 438.891 1286.27 422.045C1303.12 405.199 1330.43 405.199 1347.28 422.045L1347.29 422.03C1347.7 422.462 1348.12 422.891 1348.55 423.316C1377.33 452.094 1423.99 452.094 1452.77 423.316C1461.95 414.135 1468.2 403.134 1471.52 391.475Z" fill="#5D9FF0"/>
<path d="M1372.43 546.446C1373.4 545.497 1374.73 544.915 1376.2 544.915C1379.17 544.915 1381.59 547.331 1381.59 550.307C1381.59 552.654 1380.09 554.653 1377.99 555.394V555.519C1356.72 577.782 1326.74 591.647 1293.52 591.647C1233.61 591.647 1184.23 546.554 1177.47 488.459C1176.96 485.788 1176.69 483.031 1176.69 480.209C1176.69 456.386 1196 437.072 1219.82 437.072C1243.65 437.072 1262.96 456.386 1262.96 480.209H1262.98C1262.97 480.806 1262.96 481.406 1262.96 482.006C1262.96 522.706 1295.95 555.699 1336.65 555.699C1349.64 555.699 1361.83 552.342 1372.43 546.446Z" fill="#5D9FF0"/>
<path d="M1192.48 584.522C1193.84 584.54 1195.19 585.068 1196.23 586.104C1198.34 588.207 1198.33 591.622 1196.23 593.728C1194.57 595.389 1192.1 595.741 1190.09 594.782L1190 594.871C1159.22 595.572 1128.21 584.173 1104.72 560.685C1062.36 518.321 1059.33 451.523 1095.63 405.664C1097.15 403.411 1098.91 401.269 1100.91 399.274C1117.75 382.428 1145.07 382.428 1161.91 399.274C1178.76 416.12 1178.76 443.434 1161.91 460.28L1161.93 460.294C1161.5 460.707 1161.07 461.124 1160.64 461.549C1131.86 490.328 1131.86 536.988 1160.64 565.768C1169.82 574.949 1180.82 581.201 1192.48 584.522Z" fill="#5D9FF0"/>
<path d="M1278.47 112.436C1277.12 112.419 1275.76 111.893 1274.73 110.858C1272.62 108.752 1272.62 105.337 1274.73 103.232C1276.39 101.572 1278.86 101.22 1280.87 102.178L1280.96 102.088C1311.74 101.389 1342.75 112.785 1366.23 136.276C1408.6 178.638 1411.63 245.438 1375.33 291.295C1373.8 293.549 1372.04 295.691 1370.05 297.686C1353.2 314.532 1325.89 314.532 1309.04 297.686C1292.2 280.84 1292.2 253.527 1309.04 236.681L1309.03 236.666C1309.46 236.253 1309.89 235.835 1310.32 235.41C1339.09 206.631 1339.09 159.971 1310.32 131.192C1301.13 122.011 1290.13 115.759 1278.47 112.436Z" fill="#5D9FF0"/>
<path d="M1099.57 151.553C1098.6 152.501 1097.27 153.085 1095.8 153.085C1092.83 153.085 1090.41 150.671 1090.41 147.693C1090.41 145.345 1091.91 143.348 1094.01 142.607V142.48C1115.28 120.219 1145.26 106.353 1178.48 106.353C1238.39 106.353 1287.77 151.445 1294.52 209.541C1295.04 212.211 1295.31 214.969 1295.31 217.791C1295.31 241.615 1276 260.928 1252.18 260.928C1228.35 260.928 1209.04 241.615 1209.04 217.791H1209.02C1209.03 217.194 1209.04 216.594 1209.04 215.994C1209.04 175.294 1176.05 142.301 1135.35 142.301C1122.36 142.301 1110.16 145.659 1099.57 151.553Z" fill="#5D9FF0"/>
<path d="M999.436 305.485C999.42 306.842 998.893 308.195 997.858 309.23C995.752 311.336 992.338 311.336 990.232 309.23C988.572 307.57 988.22 305.097 989.178 303.093L989.088 303.003C988.389 272.22 999.785 241.214 1023.28 217.723C1065.64 175.361 1132.44 172.331 1178.3 208.634C1180.55 210.156 1182.69 211.915 1184.69 213.91C1201.53 230.756 1201.53 258.069 1184.69 274.915C1167.84 291.761 1140.53 291.761 1123.68 274.915L1123.67 274.93C1123.25 274.498 1122.83 274.069 1122.41 273.644C1093.63 244.865 1046.97 244.865 1018.19 273.644C1009.01 282.825 1002.76 293.826 999.436 305.485Z" fill="#5D9FF0"/>
<path d="M1038.55 481.837C1039.5 482.808 1040.08 484.138 1040.08 485.601C1040.08 488.578 1037.67 490.993 1034.69 490.993C1032.34 490.993 1030.35 489.494 1029.61 487.398H1029.48C1007.22 466.125 993.352 436.144 993.352 402.921C993.352 343.013 1038.44 293.636 1096.54 286.879C1099.21 286.362 1101.97 286.091 1104.79 286.091C1128.61 286.091 1147.93 305.405 1147.93 329.229C1147.93 353.053 1128.61 372.366 1104.79 372.366V372.387C1104.19 372.373 1103.59 372.366 1102.99 372.366C1062.29 372.366 1029.3 405.359 1029.3 446.059C1029.3 459.043 1032.66 471.244 1038.55 481.837Z" fill="#5D9FF0"/>
<path d="M3221.96 421.93C3227.43 411.773 3236.03 404.938 3247.75 401.422C3259.66 397.711 3271.18 398.395 3282.32 403.473C3293.64 408.355 3301.26 416.168 3305.17 426.91C3309.27 437.457 3308.59 447.809 3303.12 457.965C3284.37 491.754 3258.2 518.609 3224.6 538.531C3190.23 558.844 3153.12 569 3113.27 569C3052.73 569 3001.36 547.906 2959.17 505.719C2918.16 464.703 2897.65 415.484 2897.65 358.062C2897.65 300.836 2918.16 251.617 2959.17 210.406C3001.36 168.219 3052.73 147.125 3113.27 147.125C3140.03 147.125 3165.91 151.812 3190.91 161.188C3215.32 170.562 3237.49 184.039 3257.41 201.617C3266.4 209.43 3270.89 218.902 3270.89 230.035C3271.09 241.363 3266.79 251.031 3258 259.039C3249.21 267.047 3238.57 271.148 3226.07 271.344C3213.57 271.344 3202.82 267.438 3193.84 259.625C3182.71 249.664 3170.01 241.949 3155.75 236.48C3142.08 231.402 3127.92 228.863 3113.27 228.863C3079.68 228.863 3050.77 240.973 3026.55 265.191C3001.16 290.582 2988.47 321.539 2988.47 358.062C2988.47 394.781 3001.16 425.836 3026.55 451.227C3050.77 475.445 3079.68 487.555 3113.27 487.555C3135.54 487.555 3156.05 481.891 3174.8 470.562C3194.72 458.844 3210.44 442.633 3221.96 421.93ZM3437.3 528.277C3437.3 539.41 3432.9 548.98 3424.11 556.988C3415.13 564.996 3404.39 569 3391.89 569C3379.39 569 3368.74 564.996 3359.95 556.988C3350.97 548.98 3346.48 539.41 3346.48 528.277V187.848C3346.48 176.52 3350.97 166.852 3359.95 158.844C3368.74 151.031 3379.39 147.125 3391.89 147.125C3404.39 147.125 3415.13 151.031 3424.11 158.844C3432.9 166.852 3437.3 176.52 3437.3 187.848V528.277ZM3581.44 346.637V305.914C3581.44 283.648 3573.82 264.898 3558.59 249.664C3544.72 235.602 3528.21 228.57 3509.07 228.57H3489.45C3476.95 228.57 3466.3 224.566 3457.51 216.559C3448.53 208.746 3444.04 199.176 3444.04 187.848C3444.04 176.52 3448.53 166.852 3457.51 158.844C3466.3 151.031 3476.95 147.125 3489.45 147.125H3509.07C3554.97 147.125 3593.94 163.141 3625.97 195.172C3656.83 226.031 3672.26 262.945 3672.26 305.914V528.277C3672.26 539.41 3667.86 548.98 3659.07 556.988C3650.09 564.996 3639.35 569 3626.85 569C3614.35 569 3603.7 564.996 3594.91 556.988C3585.93 548.98 3581.44 539.41 3581.44 528.277V428.375H3489.74C3477.04 428.375 3466.3 424.371 3457.51 416.363C3448.72 408.355 3444.33 398.688 3444.33 387.359C3444.33 376.227 3448.72 366.656 3457.51 358.648C3466.3 350.641 3477.04 346.637 3489.74 346.637H3581.44ZM3882.32 228.863C3869.82 228.863 3859.17 224.859 3850.38 216.852C3841.4 208.844 3836.91 199.176 3836.91 187.848C3836.91 176.715 3841.4 167.145 3850.38 159.137C3859.17 151.129 3869.82 147.125 3882.32 147.125C3923.14 147.125 3957.8 161.383 3986.32 189.898C4013.47 217.047 4027.04 249.469 4027.04 287.164V528.277C4027.04 539.605 4022.65 549.273 4013.86 557.281C4004.88 565.094 3994.13 569 3981.63 569C3969.13 569 3958.49 565.094 3949.7 557.281C3940.71 549.273 3936.22 539.605 3936.22 528.277V287.164C3936.22 270.172 3930.46 255.914 3918.94 244.391C3908.59 234.039 3896.38 228.863 3882.32 228.863ZM3815.81 528.277C3815.81 539.605 3811.32 549.273 3802.34 557.281C3793.55 565.094 3782.9 569 3770.4 569C3757.9 569 3747.16 565.094 3738.18 557.281C3729.39 549.273 3724.99 539.605 3724.99 528.277V187.848C3724.99 176.715 3729.39 167.145 3738.18 159.137C3747.16 151.129 3757.9 147.125 3770.4 147.125C3782.9 147.125 3793.55 151.129 3802.34 159.137C3811.32 167.145 3815.81 176.715 3815.81 187.848V528.277ZM4074.8 228.863C4062.3 228.863 4051.65 224.859 4042.86 216.852C4034.07 208.844 4029.68 199.176 4029.68 187.848C4029.68 176.715 4034.07 167.145 4042.86 159.137C4051.65 151.129 4062.3 147.125 4074.8 147.125C4115.62 147.125 4150.29 161.383 4178.8 189.898C4205.95 217.047 4219.52 249.469 4219.52 287.164V528.277C4219.52 539.605 4215.13 549.273 4206.34 557.281C4197.36 565.094 4186.61 569 4174.11 569C4161.61 569 4150.97 565.094 4142.18 557.281C4133.2 549.273 4128.7 539.605 4128.7 528.277V287.164C4128.7 270.172 4122.94 255.914 4111.42 244.391C4101.07 234.039 4088.86 228.863 4074.8 228.863ZM4272.26 187.848C4272.26 176.715 4276.65 167.145 4285.44 159.137C4294.43 151.129 4305.17 147.125 4317.67 147.125C4330.17 147.125 4340.81 151.129 4349.6 159.137C4358.59 167.145 4363.08 176.715 4363.08 187.848V393.219H4440.71C4461.22 393.219 4479 385.699 4494.04 370.66C4510.25 354.449 4518.35 334.527 4518.35 310.895C4518.35 287.457 4510.25 267.633 4494.04 251.422C4479 236.383 4461.22 228.863 4440.71 228.863H4421.96C4409.46 228.863 4398.72 224.859 4389.74 216.852C4380.95 208.844 4376.55 199.176 4376.55 187.848C4376.55 176.715 4380.95 167.145 4389.74 159.137C4398.72 151.129 4409.46 147.125 4421.96 147.125H4440.71C4487.98 147.125 4528.12 163.629 4561.12 196.637C4592.96 228.473 4608.88 266.559 4608.88 310.895C4608.88 355.23 4592.96 393.316 4561.12 425.152C4528.12 458.355 4487.98 474.957 4440.71 474.957H4363.08V528.277C4363.08 539.605 4358.59 549.273 4349.6 557.281C4340.81 565.094 4330.17 569 4317.67 569C4305.17 569 4294.43 565.094 4285.44 557.281C4276.65 549.273 4272.26 539.605 4272.26 528.277V187.848Z" fill="#5D9FF0"/>
</svg>
